<?xml version="1.0" encoding="UTF-8"?>
<!DOCTYPE svg  PUBLIC '-//W3C//DTD SVG 1.1//EN'  'http://www.w3.org/Graphics/SVG/1.1/DTD/svg11.dtd'>
<svg enable-background="new 0 0 1646.0537 1648.1613" version="1.1" viewBox="0 0 1646.0537 1648.1613" xml:space="preserve" xmlns="http://www.w3.org/2000/svg">
	<g fill="#231F20">
			<path d="m1358.1 330.89c-3.4266-12-2.2954-19.382-6.7433-30.749-16.804-15.877-38.099-35.384-60.14-56.61-13.571-20.444-23.802-36.538-32.548-48.654-13.422-9.7171-25.228-16.153-38.922-25.355 10.047 15.124 24.333 39.454 44.546 72.18 33.883 34.134 68.704 66.436 93.808 89.188z"/>
			<path d="m1209.5 361.73c6.3928 1.242 33.506 33.751 38.678 34.013 2.887 0.1147 6.2726-16.452 8.1949-20.237 9.6479-18.903 23.612-34.592 33.843-43.915-7.8229-17.01-16.503-33.69-23.089-47.827 11.962 14.398 23.51 31.196 34.564 48.349 20.094 10.33 48.409 27.584 72.56 48.259 4.6567 3.9921 20.404 21.141 22.373 21.218 3.4731 0.0799-4.0149-31.129-0.885-31.97-40.994-40.934-84.875-70.322-129.95-87.902-26.952 15.631-43.399 42.399-56.293 80.012z"/>
			<path d="m1171.2 237.1c7.5309 20.82 7.5461 39.551 6.1792 54.581 12.33 11.955 26.049 20.137 38.252 32.684 5.5701-21.094 6.4186-52.262-9.5385-85.783-30.859-33.223-66.963-58.955-92.96-75.46 2.8629 8.6677-0.1962 14.318 1.2611 23.4 16.732 12.87 37.736 29.78 56.805 50.578z"/>
			<path d="m1074.8 137.26c43.328 26.165 87.155 48.849 130.32 64.457 16.761-10.773 14.584-33.247-6.7675-56.776-3.3961-0.9102-36.236-20.354-38.428-20.6-1.2466-0.1254 8.0004 9.1184 9.4259 11.298 7.2421 11.114 6.3407 21.624 2.8053 27.531 11.726 12.074 23.167 25.026 31.436 36.817-12.847-12.034-26.216-25.105-39.903-37.328-18.253-7.4801-44.964-19.219-69.499-31.744-4.6763-2.3901-21.2-12.168-22.864-12.229-2.991-0.0804 6.7889 18.073 3.4774 18.575z"/>
			<path d="m1514.4 682.58c8.5585 13.66 18.05 22.774 26.974 32.083 10.332-32.884 14.193-77.141-5.2961-137.71-21.341-66.19-59.464-120.7-89.14-153.56 3.3914 14.037-0.1859 21.322 2.9994 36.957 42.381 45.128 90.648 181.27 64.462 222.23z"/>
			<path d="m1445.9 520.64c-4.0774-41.988-5.3828-74.736-6.5521-102.46-11.057-11.597-22.4-22.048-34.052-32.955 0.5989 36.564 0.8215 81.053 8.0167 144.67 10.341-4.2548 20.93-7.6787 32.588-9.2526z"/>
			<path d="m1272.8 377.6c-7.3641 8.4876-11.425 20.263-15.425 32.855 28.543 21.082 66.16 47.47 100.85 61.78 23.809-11.556 37.459-36.307 42.732-56.314-12.294-13.199-24.978-25.542-38.154-34.617-0.7633 15.719-10.96 27.888-26.405 34.02-22.18-7.868-45.439-21.251-63.6-37.724z"/>
			<path d="m999.59 66.573c19.641 14.066 29.01 29.307 30.062 42.996 11.61 6.0919 23.36 11.897 35.301 18.273-1.1179-20.066-17.078-43.209-53.813-63.759-2.4353 1.2726-6.0526 2.1591-11.55 2.4908z"/>
			<path d="m1285.2 516.07c17.809 2.3707 34.316 6.5328 50.019 11.674-31.464-65.289-74.765-111.92-121.09-150.35-5.6998 10.549-12.725 20.48-19.069 31.501 33.66 29.314 64.858 63.692 90.142 107.17z"/>
			<path d="m1185.6 135.44c-5.2506-5.9866-10.265-11.308-16.864-16.911-32.089-15.833-66.479-32.054-105.57-47.624-6.5525-1.1708-14.194-2.871-22.357-4.791 54.833 22.213 101.12 46.262 144.79 69.326z"/>
			<path d="m1510 595.14c0.8049 0.0317 1.606 0.0634 2.4031 0.0953-5.7426-23.788-13.09-43.944-21.393-58.82-41.271-6.3141-75.189 6.4808-105.39 29.186-44.809-26.308-98.717-39.362-164.63-36.492-3.5304 15.046-1.87 35.544 2.7344 59.899 1.58 0.019 3.1575 0.0381 4.7325 0.0574 58.746-7.472 128.96 8.52 171.17 43.966 28.346-32.196 73.513-48.239 110.37-37.892z"/>
			<path d="m1293.3 775.1c33.072 25.578 78.033 40.587 122.75 45.834 40.767-4.7643 75.552-18.946 94.908-44.85-10.575-13.626-22.172-26.48-32.437-43.676-13.222 11.858-41.375 20.772-65.094 14.744-24.092 5.9838-58.74-4.0387-78.643-15.982-10.848 17.495-26.173 30.42-41.48 43.93z"/>
			<path d="m1533.8 557.73c6.2693 17.298 14.191 43.27 17.238 60.585 14.481 11.327 45.704 63.593 41.811 112.39-1.483 18.346-8.2694 22.555-19.528 19.858-34.951-8.4404-82.568-72.455-106.25-138.83-12.87 1.3198-21.796 8.3593-32.446 13.807 62.584 169.87 186.24 246.04 187.37 172.23-4.5026-108.68-40.279-203.28-88.2-240.03z"/>
			<path d="m957.21 231.91c8.1812 9.2676 15.101 18.91 19.646 26.557 12.37-3.6808 36.082 1.3228 46.727-0.6425-6.0331-8.8537-12.243-17.246-18.592-25.218 0.9766-7.717 1.3775-15.59 1.1626-23.592-11.046-2.1276-30.009 1.7519-43.354-1.9193-0.3617 6.889-2.087 15.897-5.5901 24.815z"/>
			<path d="m1428.1 370.56c-3.7764-3.4982-20.09-18.968-20.751-19.036-2.0228-0.131 2.7457 13.089 3.3256 16.186 1.2498 6.7198 1.3912 10.758 2.3961 16.523 39.268 39.011 74.021 73.613 102.27 95.395-9.5657-18.43-19.99-37.858-31.427-57.735-12.226-8.7936-35.232-32.25-55.818-51.334z"/>
			<path d="m1193.9 358.22c3.165-4.5314 4.6962-8.7174 8.1215-14.986 1.3235-2.4254 9.1927-10.138 7.1891-14.677-1.502-3.3587-19.72-15.33-24.764-19.669-25.26-21.755-51.88-49.386-69.359-68.601-11.541-1.8316-23.208-3.5379-34.545-6.0864 9.062-2.0061 19.196-3.0993 28.996-4.272-2.7178-17.862-5.7794-40.782-6.1301-56.826-0.0614-3.0735 2.7981-11.038 0.7495-13.402-2.7532-3.1551-15.616-8.931-18.719-10.652-7.8658-4.3605-12.459-7.1751-18.376-10.235-1.0038 22.915-2.7061 51.316 4.583 95.164 35.992 47.848 77.38 87.656 122.25 124.24z"/>
			<path d="m1379 254.27c-10.126-9.4212-20.476-18.696-28.507-25.75 1.3094 2.8583-8.4003-2.3459-9.2845-0.9764 9.4235 8.2002 18.462 16.337 27.148 24.386 6.7253 7.6862 13.579 15.847 20.55 24.524 5.0624 2.6323 6.3276-1.0225 12.616 3.5547-6.3614-7.5042-14.497-16.906-22.523-25.738z"/>
			<path d="m1160.2 134.08c-1.2373-4.7357-6.8971-11.299-13.799-17.754-24.972-11.423-56.822-24.105-79.93-30.448-5.0629 5.058-2.3739 15.393-1.8362 25.176 12.94 6.9892 25.894 13.987 38.464 19.433-3.4507-9.0479-1.913-15.046 4.0615-18.186 15.718 4.3233 34.804 11.88 53.04 21.779z"/>
			<path d="m934.55 44.983c11.606 5.4589 22.164 11.271 31.897 15.912 26.912 2.211 38.838-1.4262 34.342-6.7725 30.34 7.742 54.518 13.277 66.835 13.694-11.38-4.7902-28.33-10.952-49.002-16.979-0.2455-0.0306-0.4922-0.0611-0.7399-0.0914-3.7853 1.2339-30.73-4.7808-63.84-11.778 13.748 5.0563 3.7383 8.6802-18.155 6.0684-0.445-0.0178-0.8906-0.0354-1.3368-0.0529z"/>
			<path d="m1206.8 147.48c2.0548 2.7658 4.4149 5.3988 7.1776 9.4346 1.0824 1.577 2.5706 6.5994 6.3479 9.7956 2.818 2.3765 18.97 11.383 24.102 14.728 26.093 17.02 56.886 41.24 77.73 59.965 6.7183 1.9908 13.167 3.9258 19.849 6.7687-2.384 1.8397-6.3224 2.6638-10.37 3.6037 13.03 18.43 27.49 45.068 32.609 65.585 1.0137 4.0833 0.2892 14.998 2.4275 18.35 2.8904 4.5029 15.134 12.991 18.122 15.575 7.6168 6.5815 12.069 10.974 17.707 15.83-2.874-33.961-18.754-72.994-56.727-118.5-48.875-46.49-95.296-76.862-138.97-101.14z"/>
			<path d="m862.75 26.194c-20.969-0.6151-32.614 0.0319-36.449 0.2372 2.8354-0.2078 10.637-1.0928 23.374-1.1636 8.3828 0.0598 16.935 0.4032 28.182 1.3926-5.1285-0.5588-7.9956-0.6503-1.7923-0.246-2.0447-0.1041 7.5522 0.4735 18.031 1.3975-12.335-1.0736-21.4-1.4219-31.346-1.6177z"/>
			<path d="m968.78 41.176c7.3216 1.3812 15.61 3.1446 20.481 3.8431-50.089-14.363-96.7-17.129-98.936-17.06-1.2656 0.0414 3.6968 0.2662 21.287 2.0877 48.292 5.0066 90.942 14.932 97.81 17 16.16 4.0627 39.593 11.059 55.079 16.442-23.617-11.53-108.18-33.596-213.78-36.527-16.617-0.598-25.062-0.3549-25.852-0.3497-0.7695 0.0049 5.5596-0.2239 18.076-0.3733 22.411-0.2662 65.594-1.6529 125.83 14.937z"/>
			<path d="m1265.3 166.75c8.8337 4.9193 14.127 7.0345 16.922 7.2301-75.236-54.939-168.99-95.96-205.81-108.1-4.8174-1.5881-8.8406-2.8297-10.832-3.4172-25.603-7.5476 92.485 34.798 133.69 56.42 13.705 7.4526 30.8 17.375 46.631 27.545-73.364-44.141-243.75-107.06-351.63-116.75 76.935 5.8854 190.1 5.7617 371.02 137.07z"/>
			<path d="m1483.3 376.98c-7.1654-12.128-15.624-24.993-28.464-41.952-17.5-21.257-38.509-42.871-48.752-47.465-19.89-8.8652-8.3185 25.589-3.5637 53.658 10.933 8.1753 22.958 22.499 33.082 30.003-11.262-42.707 4.0616-54.928 47.697 5.7562z"/>
			<path d="m1150.7 95.241c16.55 7.646 31.397 15.136 51.156 26.152 3.1602 1.5401 7.3909 3.5024 12.471 6.2027 29.23 15.543 112.41 69.954 173.45 130.69 61.618 61.555 112.79 140.12 119.93 164.12 1.1906 4.0235 0.4004 6.3907 0.5481 8.6566 11.519 20.562 20.585 36.762 29.511 54.479 0.8522-34.165-49.985-125.35-150.2-224.85-99.422-100.48-193.17-146.91-236.86-165.45z"/>
			<path d="m1527.1 445.84c23.438 42.617 69.208 160.01 52.734 131.64-1.458-2.5154-3.9238-7.2567-6.5173-12.672-20.806-43.462-68.466-143.13-121.78-219.18-5.2737-1.7512-8.2262-0.422-7.5833 5.4329 129.8 191.84 173.45 319.33 174.9 403.21-10.952-107.78-72.457-278.75-117.46-352.9 9.8054 15.231 19.293 31.69 25.715 44.469z"/>
			<path d="m1358.6 624.12c-15.298-6.1271-30.092-13.615-48.557-15.524-1.7095 67.872-71.119 132.45-152.26 139.07-33.324 2.6925-57.53-2.2036-72.465-21.462-40.338-52.239 30.737-104.27 64.135-115.7-5.3379-18.004-7.2306-44.769-8.0146-62.638-114.7 40.948-185.28 134.28-246.38 248.08 107.33 35.369 223.94 37.401 314.81 6.0197 84.325-29.199 145.48-90.686 148.73-177.84z"/>
			<path d="m864.63 97.277c-15.419-19.042-26.763-55.522 0.9685-48.592 2.5449 0.6401 6.1124 1.8819 9.2093 3.3542 27.111 12.908 67.462 53.458 83.082 102.49 14.435 0.8389 25.805-0.2231 32.226-4.4403-29.267-59.314-72.477-89.243-107.23-106.32-26.56-13.037-46.195-17.828-57.726-18.983-0.1806 3.174-3.162 12.563-2.481 28.154 0.9604 21.764 8.0721 48.569 24.257 68.626 6.0692-8.8349 10.92-17.698 17.694-24.292z"/>
			<path d="m1060 334.06c-13.926-6.6386-31.011-8.8586-50.356-8.2381 25.641 80.912 17.599 182.17-27.668 224.46-5.9429 5.5355-14.212 10.281-20.895 12.733-82.763 30.154-78.67-94.656-58.104-139.45-16.189-13.722-28.255-31.199-40.755-47.626-49.15 79.598-53.47 258.45-14.084 373.21 152.67-84.26 278.54-204.12 211.86-415.09z"/>
			<path d="m1004.2 468.48c3.2152-18.052 7.6111-34.528 5.8516-55.861-6.6212-2.6096-20.327-5.6233-29.128-10.143-50.883-26.232-109.61-106.33-106.81-171.26-13.302-57.001 14.44-108.94 37.3-122.96 3.5591-2.1728 10.164-3.5109 12.912-4.7196-6.1093-10.148-13.54-17.364-20.414-24.688-42.902 16.483-71.334 63.721-80.264 152.25 11.34 110.1 73.373 198.34 180.55 237.38z"/>
			<path d="m928.62 54.144c-7.4662-4.8225-18.194-11.055-24.309-14.446-12.633-2.3652-43.046-11.885-52.323-13.874-4.3276-0.9261-3.812-0.7342 0.0375-0.5794 10.445 0.4212 54.343 3.5552 95.344 16.843 3.7588-0.085 2.8666-1.3625 2.6016-2.232-56.842-15.662-98.52-15.388-116.74-14.304-8.0295 0.4798-7.0109 1.0353-7.8347-0.3807 18.174-6.2441 53.969 17.937 103.23 28.973z"/>
			<path d="m917.78 30.295c6.4943 0.735 12.69 1.5205 22.852 3.227 44.077 6.8324 159.17 43.603 186.08 63.323 15.491 7.4593 26.106 11.718 40.79 19.452-20.818-16.367-62.622-40.01-121.99-58.849-54.066-17.138-96.092-23.452-127.73-27.153z"/>
			<path d="m1195.2 122.16c-18.19-10.705-35.805-20.014-52.26-27.96 7.3644 5.8173 27.924 20.496 49.558 42.741 6.6409 3.7321 11.8 6.4799 19.857 11.122 3.7317 2.1514 18.289 11.417 19.775 11.603 0.4786 0.0446-8.0096-9.3022-9.8495-11.295-10.325-11.172-24.575-22.936-27.08-26.212z"/>
			<path d="m896.77 30.421c-8.8582-1.5857-15.666-2.4362-22.181-3.1857 10.674 2.0615 24.112 7.0672 49.272 21.794 30.241 17.705 67.54 41.48 97.738 57.841-3.2018-7.0637-0.4423-10.514-6.0121-17.375-42.2-19.349-108.94-55.527-118.82-59.074z"/>
			<path d="m1224.1 711.38c15.469-9.1311 30.657-18.219 40.925-32.128-66.402-46.333-70.184-180.2-40.117-226.58-10.914-16.229-26.48-24.37-38.253-39.058-17.566 33.167-37.342 87.18-32.418 154.42 4.6827 63.11 36.475 108.19 69.862 143.35z"/>
			<path d="m1308.3 188.82c-17.484-13.336-31.43-22.925-44.772-31.596 54.557 37.007 15.895 21.859-36.059-8.1978 2.33 3.8552 12.953 13.066 15.537 18.072 37.618 22.163 87.651 56 97.045 53.583 3.349-0.9003-14.016-18.046-31.75-31.86z"/>
			<path d="m1034.9 136.75c4.083 2.1763 21.255 12.189 22.166 12.23 2.7592 0.0715 0.379-8.5682 0.2985-10.526-0.1608-4.183 0.1166-6.6394-0.6422-10.054-39.575-22.414-76.933-38.756-111.94-47.378 8.8486 7.7073 17.648 16.62 26.175 26.728 16.414 4.4037 41.982 17.296 63.941 29z"/>
			<path d="m909.61 310.03c7.2048 17.75 18.733 31.328 31.381 44.158 28.532-57.024 137.96-40.898 189.03 4.0846 11.092-6.6494 12.635-20.722 21.508-28.36-40.602-30.221-103.96-67.3-160.27-63.12-37.565 2.8342-57.132 23.702-81.648 43.237z"/>
			<path d="m1089.8 406.99c2.4722 20.418 3.3195 40.228 2.1725 58.886 54.522-18.008 88.185-51.096 106.89-90.444-6.1863-6.0935-11.758-10.441-19.706-17.589-3.658-3.2974-15.711-17.122-19.682-17.254-1.304-0.0172-10.067 14.743-12.635 18.04-14.565 18.71-35.263 40.865-57.044 48.361z"/>
			<path d="m900.42 134.92c-5.2203 8.0219-10.154 16.843-11.666 29.25 24.31 15.328 48.306 32.49 82.798 35.884 53.382 5.1981 81.326-22.92 88.025-44.039-12.357-5.6118-23.69-15.003-35.812-19.616-4.6922 29.232-85.371 38.816-123.34-1.4792z"/>
			<path d="m1112.8 1491.6c2.1783 5.0525-1.4352 13.082-0.562 18.056 16.394-7.7379 36.82-17.48 55.35-24.115 5.8822 4.8705 5.0686 13.72 2.7551 20.497 11.889-5.6615 25.472-14.219 37.269-20.186 7.1846-13.113 9.1578-30.851-3.4844-38.351-30.305 10.644-65.463 29.517-91.327 44.099z"/>
			<path d="m1208.5 1287.2c-3.715 7.192-36.997 25.341-39.495 31.308-1.3744 3.3439 7.1688 14.67 8.3567 18.784 5.9087 20.617 3.5732 47.708-1.3625 66.571 10.933 1.4006 21.751 2.5918 29.485 5.7284-12.589 4.0087-25.524 6.2085-38.642 8.5138-18.702 18.426-46.164 42.033-70.994 58.818-4.7257 3.1907-21.25 11.946-23.024 14.254-3.1266 4.1104 5.4785 14.81 1.9375 19.247 43.064-23.055 88.625-54.594 132.17-100.9 22.082-47.273 20.254-89.925 1.5681-122.32z"/>
			<path d="m1296.2 1315.9c-12.569-7.8713-21.045-21.023-28.586-32.077-13.566 8.7933-25.82 21.627-39.578 29.971 8.3535 18.992 19.356 41.047 38.547 51.404 32.002-12.11 67.066-36.423 92.119-57.277-2.302-7.6287-0.0168-19.922-3.2849-27.816-16.727 12.268-38.024 26.755-59.217 35.796z"/>
			<path d="m1395.7 1279.3c-40.865 36.224-83.991 79.161-132.08 127.23-27.743 45.724-48.989 76.015-64.346 96.206 6.4592-4.5514 32.287-17.236 37.53-21.412 2.9417-2.3502 7.3722-10.25 9.5795-13.267 11.332-15.466 27.289-38.334 38.584-56.31-7.0275-1.2526-14.662-2.375-20.122-5.2928 11.256-4.0387 21.909-6.3938 32.288-8.9603 20.701-19.342 49.395-47.026 73.49-69.217 4.6664-4.2935 20.065-16.52 22.222-19.826 3.8348-5.9148-0.7159-22.058 2.8573-29.148z"/>
			<path d="m898.18 1525.8c-9.1237 6.5809-16.133 15.037-22.841 23.055 11.006 13.504 23.099 25.174 49.175 23.062 28.548-2.3409 66.967-17.709 97.186-33.418-2.9043-4.2466 0.2222-12.252-4.8256-16-42.592 25.885-107.66 34.14-118.69 3.3025z"/>
			<path d="m1002.5 1493.3c18.182 9.6938 27.404 23.849 27.422 39.178 11.63-6.3937 23.443-13.582 35.419-20.686 0.6194-23.75-15.504-45.357-49.973-56.832-2.6933 12.555-6.7038 25.233-12.869 38.341z"/>
			<path d="m1167.5 1356.1c-0.5238-12.934-5.6414-23.139-12.001-32.751-25.855 24.517-58.538 57.367-83.365 90.847-5.6145 31.366-4.9701 57.007-5.4835 74.193 12.992-7.3668 26.095-15.342 38.897-25.829-2.72-10.499 0.327-28.234 6.869-49.457 16.844-22.148 36.444-43.418 55.084-57.004z"/>
			<path d="m1434.9 1304.3c-0.7539-14.403 1.4187-35.956 3.6918-62.715-11.05 11.647-22.506 24.033-34.196 35.584-3.8245 35.91-8.3206 62.707-5.1119 76.924 11.49-15.044 23.173-31.345 35.616-49.792z"/>
			<path d="m1071.8 1320.6c-7.0427 18.652-15.318 35.333-24.101 50.855 54.848-16.553 103.14-47.01 148.29-85.491-4.6855-11.234-9.1515-23.238-15.298-34.315-33.358 28.715-69.148 52.507-108.89 68.951z"/>
			<path d="m1203.2 1503.2c-6.2583 6.765-13.788 13.604-20.613 19.511 32.52-16.621 61.867-32.7 85.786-45.428 18.029-13.342 34.497-26.45 50.083-39.555-29.896 16.052-70.126 40.285-115.26 65.472z"/>
			<path d="m937.46 1539.1c-0.4665 0.8384-0.9345 1.6721-1.4041 2.5012 11.415 0.2606 22.064-1.0494 31.884-4.8092 30.513-41.263 41.905-83.677 38.071-121.23 32.138-41.392 59.848-95.206 72.169-166.87-11.614-6.837-29.139-8.7271-50.477-7.5541-0.2797 1.6448-0.5612 3.2869-0.8444 4.9263-3.7013 62.714-34.026 132.16-68.576 170.2 14.162 34.133 3.3864 87.223-20.822 122.84z"/>
			<path d="m863.77 1295.1c-22.368 32.058-34.591 77.239-38.484 121.96 3.2086 40.758 11.69 74.822 24.539 96.057 8.6582-10.08 17.557-20.877 29.268-29.586-5.0727-14.486-8.0981-43.205-1.5835-66.601-1.8605-24.601 8.0945-58.871 19.197-78.013-12.88-12.184-22.375-28.106-32.936-43.819z"/>
			<path d="m929.08 1575.6c-7.4838 0.8547-18.162 1.5992-24.117 0.4852-12.665 12.16-43.621 30.726-52.886 22.836-4.356-3.7308-3.704-10.502 0.0893-21.597 11.804-34.454 55.448-77.359 97.991-87.191 4.2578-13.614 3.4002-24.42 3.3416-36.484-59.468 15.871-102.47 58.789-120.67 103.6-13.354 32.96-4.9985 57.613-7.514 66.156 7.5902-0.6251 19.116-3.1753 34.528-8.7388 19.741-7.1315 43.757-18.563 69.234-39.064z"/>
			<path d="m1399.9 1013.6c-10.352 8.4347-20.806 14.781-28.845 18.502 0.4546 18.077-10.575 48.504-12.286 63.769 9.3879-4.4873 18.456-9.4128 27.21-14.767 6.1755 4.9227 12.487 9.4617 18.967 13.601 5.8759-15.275 8.9037-45.352 15.881-63.566-5.9894-3.4848-13.548-9.5417-20.926-17.539z"/>
			<path d="m1033.4 1550.4c4.0713-2.1434 21.126-10.866 22.065-11.674 2.8491-2.4808 0.9703-6.6389 1.0286-8.1753 0.1367-3.3674 0.6068-5.9773 0.095-8.5665-39.557 21.623-76.055 44.239-112.41 65.817 8.5663-1.7195 17.062-3.0455 25.435-4.0876 16.658-9.1914 41.99-21.843 63.79-33.313z"/>
			<path d="m1217.8 1269.9c1.7295 5.85 3.8507 9.6194 6.1719 16.914 0.8999 2.8243 1.5559 16.6 5.2535 16.552 2.7347-0.0598 19.443-16.542 24.671-20.554 26.49-20.304 57.229-38.845 78.083-49.911 7.595-15.078 14.809-30.54 22.099-45.071-3.1711 14.368-7.9744 29.747-13.07 44.729 11.278 9.4772 23.57 26.244 26.432 45.461 0.5458 3.7145-1.7847 19.404 0.1803 19.257 2.6125-0.2264 15.231-14.379 18.243-17.336 7.6854-7.5498 12.117-11.553 17.832-17.64 1.4821-37.083-12.347-70.281-45.167-87.041-49.754 21.197-95.75 55.736-140.73 94.64z"/>
			<path d="m953 1609.5c7.8291-1.6299 14.404-3.0211 18.713-3.8845 12.191-3.6249 35.316-11.289 45.766-15.669-5.7382 1.4451-11.644 2.9573-17.695 4.5161 1.1331-1.1886 1.748-2.3701 1.7545-3.4169-10.826 4.3896-29.604 11.746-42.678 15.47-0.4879 0.6156-2.3573 1.6936-5.8619 2.9839z"/>
			<path d="m1263.2 1453.4c-8.0624 10.175-13.036 17.552-17.83 24.227 28.085-18.136 65.754-45.176 100.18-78.055 26.946-32.14 42.798-63.87 50.506-87.197-12.094 10.416-24.559 21.194-37.991 34.447-2.3906 12.584-13.904 33.261-31.218 54.787-22.355 21.903-45.957 40.51-63.646 51.792z"/>
			<path d="m1501.3 1223.3c-4.532-0.2135-10.449 2.6029-18.173 9.7878-41.448 72.255-80.974 124.34-115.1 163.18-43.649 40.597-96.109 84.888-164.09 125.42-3.9979 3.4012-3.0938 3.9205 0.9204 2.6469 1.5458-0.8777 3.0887-1.7607 4.6287-2.6494 59.905-34.932 128.53-89.997 169.27-127.75 31.673-35.05 82.718-102.67 119.87-165.84 0.8984-1.5921 1.7913-3.1875 2.679-4.7861z"/>
			<path d="m1183.6 1513.3c3.4341-3.3699 5.2003-5.5619 9.0032-10.004 1.4749-1.7261 9.9468-10.547 8.1666-10.44-1.3361 0.0962-19.289 10.966-24.19 13.524-24.592 12.824-50.313 23.378-66.953 29.36-11.549 7.7596-23.299 15.09-34.683 21.483 9.3262-6.2322 19.662-13.481 29.582-21.154-1.9268-4.996-3.527-13.743-2.7164-25.028 0.1689-2.2844 3.8054-12.344 1.858-12.239-2.6285 0.1632-15.623 9.3341-18.725 11.185-7.8717 4.6996-12.443 7.1046-18.378 10.688-2.5973 20.471-7.3895 34.001-0.5607 41.871 33.287-9.2944 74.141-26.036 117.6-49.245z"/>
			<path d="m1268 1487.6c31.919-21.937 76.938-56.958 119.62-100.01 42.966-42.721 77.966-87.418 99.362-118.52-10.426 15.94-22.028 31.934-31.862 44.281-14.184 18.643-43.192 52.476-67.489 76.729-23.949 23.849-58.429 53.287-77.888 68.236-11.208 8.5685-26.476 19.408-41.746 29.285z"/>
			<path d="m1337.4 1432c-15.029 12.692-29.487 24.08-48.065 37.903-4.6581 8.2346-71.322 54.407-151.07 88.29-31.377 13.324-54.533 21.082-68.45 25.748-37.786 12.667 30.62-9.2942 62.522-23.11-4.884 1.8519-6.203 1.8281-6.5453 1.5504-106.92 47.324-178.04 52.218-234.27 56.326 200.42-17.267 428.27-154.86 445.87-186.71z"/>
			<path d="m1051.4 1582.7c-13.43 4.9271-29.986 11.025-48.917 16.783 21.865-3.5739 14.349 1.5562-28.85 9.6849-5.6451 1.0616-13.462 2.4205-19.776 3.4226-77.198 12.24-74.119 8.6614-54.206 7.0734-15.222 1.3411-26.559 1.9287-38.359 2.2437-22.931 0.3895-35.284-0.3438-37.757-0.406-1.7097-0.043 6.0086 0.3334 24.463-0.2456 72.157-1.7397 136.87-13.04 178.24-24.016 38.206-10.147 50.795-18.303 25.161-14.54z"/>
			<path d="m898.83 1617.9c-5.2391 1.4001-10.175 2.2697-11.608 2.5909 23.604-2.7502 47.079-6.3055 80.374-17.344 53.991-17.924 82.375-44.52 90.058-62.158-12.328 7.35-23.386 11.319-35.602 18.454-5.8648 18.461-86.456 52.687-123.22 58.457z"/>
			<path d="m995.32 1604.4c3.179-0.8878 7.5434-2.2278 6.2291-2.2339-6.3116 1.5955-19.402 4.6986-27.781 6.4449-48.04 10.005-104.86 13.406-100.98 13.33-12.861 0.7794 14.959-0.1371 37.187-8.8411 3.5806-1.4022 10.165-4.0712 12.914-5.4305-5.9982 0.5255-13.171 2.0321-19.817 3.1993-39.496 20.324-70.892 11.293-78.352 10.763 11.416 0.7135 70.502 5.9005 170.6-17.232z"/>
			<path d="m864.13 1622.2c-14.91 1.2139-25.374 4.4938 1.2728-3.3466 2.5348-0.7461 6.0728-1.8149 9.1392-2.6897 27.134-7.7379 63.21-14.516 80.555-13.358 14.446-5.4928 25.782-11.182 32.266-15.7-32.229-0.1501-70.312 8.9185-104.52 20.143-26.843 8.8123-46.925 19.592-57.595 15.634 0.1516-1.5001-2.4267-1.4167-2.0311-1.3403 1.1408 0.2201 8.2463 1.3928 23.681 1.4033 5.7866 0.0828 10.551 0.0042 17.233-0.7455z"/>
			<path d="m974.07 1375.4c7.8089-14.799 16.639-28.817 21.869-47.661-52.571-13.101-99.746-85.847-102.65-167.61-1.1681-33.551 4.0534-57.77 22.861-72.08 51.454-38.977 96.452 37.505 103.01 73.191 16.924-3.6003 41.357-2.2902 57.511-0.5203-19.258-126.08-112.57-203.3-225.57-264.63-35.5 107.17-35.134 223.39-8.3395 314.9 24.783 84.447 67.931 146.14 131.31 164.41z"/>
			<path d="m1545.7 912c22.043-24.584 62.454-32.419 41.481 50.399-1.7533 6.899-4.4995 15.595-7.1708 22.049-21.37 51.545-69.161 74.308-113.06 67.333-6.3356 24.004-10.844 44.156-11.425 58.875 51.35 2.8774 92.837-23.835 120.53-73.47 25.918-46.523 42.971-115.67 45.921-189.54-1.0228-38.454-54.519-32.801-97.476 21.496 8.3715 13.319 16.428 25.831 21.192 42.86z"/>
			<path d="m1282.9 1115.3c9.491-15.149 15.828-35.736 19.334-59.993-79.62 11.072-172.41-12.411-210.73-63.423-4.993-6.6659-9.1376-15.66-11.177-22.825-24.893-88.167 97.87-80.552 140.95-54.357 14.578-17.521 32.498-30.476 49.244-44.477-76.804-60.411-257.63-60.242-372.58-20.951 42.546 77.916 90.76 148.5 154.72 198.49 60.218 47.004 132.93 75.396 230.23 67.533z"/>
			<path d="m1168.7 1023.4c16.94 5.7139 32.029 12.962 52.482 14.433 3.4331-7.1621 8.1829-22.431 13.624-31.914 31.925-55.464 114.94-122.06 178.88-109.8 57.634-11.547 106.08 50.741 108.5 105 0.397 9.1151-1.4719 23.935-1.8982 30.849 10.124-1.9469 18.84-9.335 27.193-15.46 10.404-111.3-42.769-178.91-131.49-191.69-109.92 15.832-197.32 83.87-247.29 198.58z"/>
			<path d="m1530 1146.9c5.1021-2.2495 11.504-4.5677 13.264-1.5782 16.426-34.175 48.552-108.37 39.034-72.968-3.5541 13.192-11.394 36.242-25.043 67.902-34.722 80.491-87.638 152.61-106.79 166.9-13.497 18.658-23.489 32.148-35.132 46.414 25.687-19.492 76.636-80.961 118.98-166.31 42.034-84.794 75.153-195.55 84.857-296.09-1.1212 59.87-30.566 138.43-89.169 255.73z"/>
			<path d="m1202.4 1527.8c15.198-8.1471 30.065-16.912 40.415-23.524-62.516 38.258-63.624 32.668-32.215 6.0596-10.294 4.7664-25.5 13.435-36.628 18.384-18.649 15.574-40.882 28.701-36.146 28.973 2.129 0.1005 33.148-12.87 64.573-29.892z"/>
			<path d="m1078.8 1576.3c1.7949 0.3134 2.2795 1.1128 0.8716 2.2676 54.574-21.378 87.821-43.475 108.18-64.838-5.9534 2.9893-11.367 5.8822-19.04 9.6744-3.5359 1.7465-15.029 6.7277-19.022 9.2548-1.3054 0.8308-10.678 8.9927-13.372 11.018-15.034 11.298-35.946 23.361-57.621 32.624z"/>
			<path d="m1496.5 1250.5c8.3535-11.748 18.2-27.534 27.337-43.588 14.011-28.778 20.469-55.416 6.6179-50.427-19.668 7.1497-54.278 42.901-83.778 73.719 1.9604 7.8418-2.9961 22.336-1.1884 28.95 42.559-46.327 84.06-67.064 51.012-8.6541z"/>
			<path d="m922.16 1228.7c6.835 16.186 13.23 32.182 23.777 43.949 46.756-63.898 166.04-48.469 191.8-0.8993 15.813-7.4384 27.07-22.56 42.198-31.344-19.981-31.007-62.758-65.004-123.2-69-57.24-3.71-101.11 25.617-134.58 57.294z"/>
			<path d="m906.4 1619.1c6.7633-0.724 17.709-2.038 29.668-3.8651 26.626-4.5515 134.65-41.392 183.62-62.291 11.359-6.9283 13.42-10.274 22.561-17.467-39.293 19.34-99.894 48.549-156.64 66.38-36.079 11.327-55.668 14.562-79.21 17.242z"/>
			<path d="m1432.6 1205.8c-3.8489 4.4971-20.327 21.922-21.093 23.496-2.2952 4.8068 1.1563 12.711 1.3705 15.555 0.4489 6.1239 0.0542 10.741 0.4204 15.28 39.172-38.089 76.188-84.402 105.86-149.09-8.8794 5.3344-18.41 9.1302-28.527 11.868-13.204 27.083-36.966 58.27-58.032 82.889z"/>
			<path d="m1332.8 933.18c-18.097 6.775-32.521 19.185-46.487 32.684 52.612 42.576 9.0381 180.48-44.416 226.7 1.6433 15.896 11.771 23.436 13.569 37.868 38.966-37.482 94.221-103.62 104.58-181.61 6.7056-50.888-10.325-81.751-27.244-115.64z"/>
			<path d="m1211.8 1130.7c-18.612-2.0874-36.473-5.2837-53.137-9.9487 6.7963 64.25 25.025 109.48 45.086 147.86 6.8049-4.9058 12.146-9.7992 20.439-16.399 3.8376-3.0465 18.637-11.804 20.348-16.652 0.5411-1.598-7.0295-18.425-8.6602-22.788-9.1849-24.55-22.313-54.98-24.076-82.077z"/>
			<path d="m1502.5 963.04c-5.8992-13.152-13.372-25.131-25.046-31.318-18.435 34.581-39.319 65.246-53.086 115.76-21.293 78.273-17.664 141.12-16.722 177.26 11.427-14.596 23.135-22.791 33.768-38.935-6.1455-44.825 16.42-176.19 61.086-222.77z"/>
			<path d="m533.29 156.58c-2.1783-5.0527 1.4351-13.082 0.5621-18.056-16.395 7.7382-36.82 17.48-55.35 24.115-5.8822-4.8705-5.0687-13.72-2.7552-20.497-11.889 5.6615-25.472 14.219-37.269 20.186-7.1846 13.113-9.1574 30.851 3.4846 38.351 30.305-10.644 65.463-29.517 91.327-44.099z"/>
			<path d="m437.59 360.95c3.715-7.1919 36.997-25.34 39.495-31.308 1.3744-3.3438-7.1688-14.67-8.3568-18.784-5.9088-20.617-3.5734-47.708 1.3625-66.571-10.933-1.4006-21.751-2.5917-29.485-5.7286 12.589-4.0087 25.524-6.2085 38.642-8.5138 18.702-18.426 46.164-42.032 70.994-58.818 4.7258-3.1906 21.25-11.946 23.024-14.254 3.1266-4.1104-5.4785-14.81-1.9375-19.247-43.064 23.055-88.625 54.594-132.17 100.9-22.082 47.273-20.254 89.925-1.5681 122.32z"/>
			<path d="m349.94 332.25c12.569 7.8713 21.046 21.023 28.586 32.077 13.566-8.7932 25.82-21.627 39.578-29.971-8.3535-18.992-19.356-41.047-38.548-51.404-32.002 12.11-67.066 36.423-92.119 57.277 2.3021 7.6286 0.0169 19.922 3.285 27.816 16.727-12.268 38.024-26.754 59.218-35.796z"/>
			<path d="m250.46 368.89c40.865-36.223 83.99-79.161 132.08-127.23 27.743-45.724 48.989-76.015 64.346-96.206-6.4592 4.5514-32.287 17.236-37.53 21.412-2.9419 2.3505-7.3721 10.25-9.5793 13.267-11.332 15.466-27.289 38.334-38.584 56.31 7.0277 1.2525 14.662 2.375 20.123 5.2928-11.256 4.039-21.909 6.3938-32.288 8.9607-20.701 19.342-49.395 47.026-73.49 69.217-4.6663 4.2935-20.065 16.52-22.222 19.826-3.8347 5.9146 0.7161 22.057-2.8572 29.148z"/>
			<path d="m747.93 122.37c9.1237-6.581 16.133-15.037 22.841-23.055-11.006-13.504-23.099-25.174-49.175-23.062-28.548 2.341-66.967 17.709-97.186 33.418 2.9044 4.2466-0.222 12.252 4.8257 16 42.592-25.885 107.66-34.14 118.69-3.3023z"/>
			<path d="m643.66 154.91c-18.182-9.6938-27.404-23.848-27.423-39.178-11.63 6.3937-23.444 13.583-35.419 20.686-0.6193 23.75 15.504 45.357 49.973 56.832 2.6933-12.555 6.704-25.233 12.869-38.341z"/>
			<path d="m478.65 292.09c0.524 12.934 5.6414 23.139 12.001 32.751 25.855-24.517 58.538-57.367 83.365-90.847 5.6144-31.366 4.9699-57.007 5.483-74.193-12.992 7.3668-26.094 15.342-38.897 25.829 2.72 10.499-0.3272 28.235-6.8688 49.457-16.843 22.147-36.443 43.417-55.084 57.004z"/>
			<path d="m211.22 343.83c0.754 14.403-1.4185 35.956-3.6915 62.715 11.05-11.647 22.505-24.033 34.196-35.584 3.8244-35.91 8.3204-62.707 5.1116-76.924-11.49 15.044-23.173 31.345-35.616 49.792z"/>
			<path d="m574.28 327.52c7.0428-18.652 15.318-35.333 24.101-50.855-54.848 16.553-103.14 47.01-148.29 85.491 4.6856 11.234 9.1515 23.238 15.298 34.315 33.358-28.715 69.148-52.507 108.89-68.951z"/>
			<path d="m442.93 144.99c6.2583-6.765 13.788-13.604 20.613-19.511-32.521 16.621-61.867 32.7-85.786 45.428-18.029 13.342-34.497 26.449-50.083 39.555 29.896-16.051 70.126-40.285 115.26-65.472z"/>
			<path d="m708.65 109.08c0.4665-0.8384 0.9344-1.6721 1.404-2.5012-11.415-0.2606-22.064 1.0494-31.884 4.8093-30.513 41.263-41.905 83.677-38.07 121.23-32.137 41.392-59.848 95.206-72.169 166.87 11.614 6.8369 29.139 8.7274 50.477 7.5541 0.2797-1.6446 0.5611-3.2866 0.8444-4.9258 3.7011-62.714 34.026-132.16 68.575-170.2-14.162-34.133-3.3867-87.224 20.822-122.84z"/>
			<path d="m782.35 353.06c22.368-32.058 34.591-77.239 38.484-121.96-3.2087-40.758-11.69-74.822-24.54-96.057-8.6582 10.08-17.558 20.877-29.267 29.587 5.0727 14.486 8.0981 43.205 1.5837 66.601 1.8606 24.601-8.0945 58.871-19.197 78.013 12.88 12.183 22.375 28.105 32.936 43.818z"/>
			<path d="m717.03 72.546c7.4837-0.8548 18.162-1.5992 24.117-0.4852 12.665-12.16 43.621-30.726 52.885-22.836 4.356 3.7309 3.7041 10.502-0.0891 21.597-11.803 34.454-55.448 77.358-97.991 87.191-4.2577 13.614-3.4001 24.42-3.3414 36.484 59.468-15.871 102.47-58.789 120.67-103.6 13.353-32.96 4.9988-57.612 7.5131-66.156-7.5901 0.6251-19.116 3.1753-34.528 8.7388-19.741 7.1318-43.757 18.563-69.234 39.064z"/>
			<path d="m246.22 634.56c10.352-8.4347 20.807-14.781 28.845-18.502-0.4545-18.078 10.575-48.504 12.286-63.769-9.388 4.4877-18.456 9.4128-27.21 14.767-6.1755-4.9226-12.487-9.4616-18.967-13.601-5.8758 15.275-8.9037 45.352-15.881 63.566 5.9894 3.4848 13.549 9.5416 20.926 17.539z"/>
			<path d="m612.72 97.758c-4.0712 2.1434-21.125 10.866-22.065 11.674-2.8489 2.4809-0.9703 6.639-1.0285 8.1752-0.1368 3.3675-0.6069 5.9773-0.0949 8.5665 39.557-21.623 76.055-44.239 112.41-65.817-8.5662 1.7195-17.062 3.0456-25.435 4.0877-16.657 9.1912-41.99 21.843-63.79 33.313z"/>
			<path d="m428.35 378.3c-1.7295-5.85-3.8508-9.6194-6.1719-16.914-0.9-2.8244-1.5559-16.6-5.2535-16.552-2.7347 0.0597-19.443 16.542-24.671 20.554-26.49 20.304-57.229 38.844-78.083 49.911-7.595 15.078-14.809 30.54-22.1 45.071 3.171-14.368 7.9742-29.747 13.07-44.729-11.278-9.4771-23.57-26.244-26.433-45.461-0.5458-3.7145 1.7844-19.404-0.1803-19.257-2.6125 0.2264-15.231 14.379-18.243 17.336-7.6855 7.5498-12.117 11.553-17.832 17.64-1.4822 37.083 12.347 70.281 45.168 87.041 49.755-21.196 95.751-55.736 140.73-94.64z"/>
			<path d="m693.12 38.695c-7.829 1.6299-14.404 3.0212-18.713 3.8845-12.191 3.6249-35.316 11.289-45.766 15.668 5.7382-1.4451 11.644-2.957 17.695-4.516-1.1331 1.1885-1.7478 2.3701-1.7542 3.4168 10.826-4.3897 29.604-11.746 42.677-15.47 0.4874-0.6155 2.3568-1.6935 5.8615-2.9838z"/>
			<path d="m382.9 194.77c8.0624-10.175 13.036-17.552 17.83-24.227-28.085 18.136-65.754 45.176-100.18 78.054-26.946 32.14-42.798 63.869-50.506 87.197 12.094-10.416 24.56-21.194 37.991-34.447 2.3906-12.584 13.904-33.261 31.218-54.787 22.355-21.902 45.956-40.51 63.645-51.791z"/>
			<path d="m144.8 424.85c4.5317 0.2141 10.449-2.6029 18.173-9.7878 41.448-72.255 80.974-124.34 115.1-163.18 43.649-40.597 96.108-84.888 164.09-125.42 3.9981-3.4013 3.0938-3.9206-0.9203-2.6469-1.5458 0.8776-3.0887 1.7607-4.6286 2.6494-59.905 34.932-128.53 89.997-169.27 127.75-31.674 35.051-82.718 102.67-119.87 165.84-0.8984 1.5923-1.7915 3.1877-2.6792 4.7863z"/>
			<path d="m462.52 134.83c-3.4341 3.3699-5.2002 5.5618-9.0031 10.004-1.4749 1.7261-9.9469 10.547-8.1667 10.44 1.336-0.0961 19.289-10.966 24.19-13.524 24.592-12.824 50.313-23.378 66.953-29.36 11.549-7.7597 23.299-15.09 34.683-21.483-9.3257 6.2319-19.662 13.481-29.582 21.154 1.9268 4.996 3.527 13.743 2.7166 25.028-0.1688 2.2843-3.8053 12.344-1.8579 12.239 2.6284-0.1632 15.622-9.3341 18.725-11.185 7.8715-4.6996 12.443-7.1047 18.378-10.688 2.597-20.47 7.3893-34.001 0.5602-41.871-33.288 9.2945-74.142 26.036-117.6 49.245z"/>
			<path d="m378.09 160.6c-31.919 21.937-76.938 56.958-119.62 100.01-42.966 42.721-77.966 87.418-99.363 118.52 10.426-15.94 22.028-31.934 31.862-44.281 14.184-18.643 43.192-52.476 67.489-76.729 23.949-23.849 58.428-53.287 77.888-68.236 11.208-8.5682 26.475-19.408 41.746-29.284z"/>
			<path d="m308.69 216.14c15.029-12.692 29.487-24.08 48.065-37.903 4.6579-8.2346 71.322-54.407 151.07-88.29 31.377-13.324 54.533-21.082 68.45-25.748 37.786-12.667-30.619 9.2939-62.522 23.11 4.8839-1.8519 6.2029-1.828 6.5452-1.5503 106.92-47.324 178.04-52.218 234.27-56.325-200.42 17.266-428.27 154.86-445.87 186.71z"/>
			<path d="m594.73 65.438c13.43-4.9271 29.986-11.025 48.917-16.783-21.865 3.574-14.349-1.5561 28.85-9.6848 5.6451-1.0616 13.462-2.4205 19.776-3.4226 77.198-12.239 74.118-8.6613 54.207-7.0733 15.222-1.3411 26.559-1.9288 38.358-2.2437 22.931-0.3895 35.284 0.3437 37.757 0.406 1.7097 0.043-6.0087-0.3334-24.464 0.2457-72.157 1.7397-136.87 13.04-178.24 24.016-38.206 10.147-50.795 18.303-25.16 14.54z"/>
			<path d="m747.29 30.27c5.2392-1.4001 10.174-2.2696 11.607-2.5908-23.604 2.7502-47.079 6.3055-80.374 17.344-53.991 17.924-82.374 44.52-90.058 62.158 12.328-7.3502 23.386-11.319 35.602-18.454 5.8645-18.461 86.455-52.687 123.22-58.457z"/>
			<path d="m650.79 43.765c-3.1784 0.8876-7.5433 2.2277-6.2288 2.2338 6.3112-1.5954 19.402-4.6987 27.781-6.4449 48.04-10.005 104.86-13.406 100.98-13.33 12.861-0.7794-14.958 0.137-37.187 8.8409-3.5806 1.4022-10.165 4.0711-12.914 5.4305 5.9982-0.5254 13.171-2.0321 19.817-3.1993 39.496-20.324 70.892-11.293 78.352-10.763-11.416-0.7136-70.501-5.9007-170.6 17.231z"/>
			<path d="m781.98 25.957c14.91-1.2138 25.374-4.4938-1.2726 3.3465-2.5347 0.746-6.073 1.8151-9.1392 2.6897-27.134 7.7378-63.209 14.516-80.555 13.358-14.447 5.4929-25.782 11.182-32.266 15.7 32.229 0.1501 70.312-8.9185 104.52-20.143 26.843-8.8122 46.925-19.592 57.594-15.633-0.1516 1.5001 2.4271 1.4169 2.0312 1.3404-1.1407-0.2202-8.2462-1.3929-23.68-1.4033-5.7864-0.0827-10.551-0.0041-17.233 0.7456z"/>
			<path d="m672.05 272.78c-7.8088 14.799-16.639 28.818-21.869 47.662 52.571 13.101 99.746 85.847 102.65 167.61 1.1681 33.551-4.0533 57.77-22.861 72.08-51.454 38.977-96.453-37.505-103.01-73.191-16.924 3.6003-41.357 2.2902-57.511 0.5204 19.258 126.08 112.57 203.3 225.57 264.63 35.5-107.17 35.134-223.39 8.3392-314.9-24.783-84.447-67.932-146.14-131.31-164.41z"/>
			<path d="m100.4 736.16c-22.044 24.584-62.455 32.419-41.482-50.399 1.7533-6.899 4.4996-15.595 7.1708-22.049 21.37-51.545 69.161-74.308 113.06-67.333 6.3357-24.004 10.844-44.156 11.425-58.875-51.35-2.8774-92.838 23.835-120.53 73.47-25.918 46.523-42.972 115.67-45.922 189.54 1.0232 38.454 54.52 32.801 97.477-21.496-8.3718-13.319-16.428-25.831-21.192-42.86z"/>
			<path d="m363.21 532.87c-9.4911 15.149-15.829 35.736-19.334 59.993 79.62-11.072 172.41 12.411 210.73 63.423 4.9932 6.6659 9.138 15.66 11.177 22.825 24.893 88.167-97.87 80.552-140.95 54.357-14.578 17.521-32.498 30.475-49.244 44.477 76.804 60.411 257.63 60.242 372.58 20.951-42.546-77.916-90.761-148.5-154.72-198.49-60.218-47.004-132.93-75.396-230.23-67.533z"/>
			<path d="m477.37 624.71c-16.94-5.7139-32.029-12.962-52.482-14.433-3.4331 7.1621-8.1829 22.431-13.624 31.914-31.925 55.464-114.94 122.06-178.88 109.8-57.634 11.547-106.08-50.741-108.5-105-0.397-9.1151 1.4719-23.935 1.8981-30.849-10.124 1.947-18.84 9.335-27.193 15.46-10.405 111.3 42.77 178.91 131.49 191.69 109.92-15.832 197.32-83.871 247.29-198.58z"/>
			<path d="m116.14 501.27c-5.1021 2.2494-11.504 4.5677-13.264 1.5782-16.426 34.175-48.552 108.37-39.034 72.968 3.554-13.192 11.394-36.242 25.042-67.902 34.723-80.491 87.638-152.61 106.79-166.9 13.497-18.658 23.49-32.149 35.132-46.415-25.687 19.493-76.637 80.961-118.98 166.31-42.034 84.794-75.153 195.55-84.857 296.09 1.1216-59.87 30.567-138.43 89.17-255.72z"/>
			<path d="m443.74 120.39c-15.198 8.147-30.064 16.912-40.415 23.524 62.517-38.259 63.624-32.668 32.215-6.0595 10.294-4.7664 25.5-13.435 36.628-18.384 18.65-15.575 40.882-28.701 36.146-28.973-2.1294-0.1005-33.149 12.87-64.574 29.892z"/>
			<path d="m567.29 71.883c-1.7952-0.3132-2.2797-1.1128-0.8716-2.2675-54.574 21.378-87.821 43.475-108.18 64.838 5.9533-2.9893 11.367-5.8822 19.04-9.6744 3.5356-1.7462 15.029-6.7277 19.022-9.2547 1.3053-0.8307 10.678-8.9927 13.372-11.018 15.034-11.298 35.946-23.361 57.621-32.624z"/>
			<path d="m149.65 397.63c-8.3535 11.748-18.2 27.534-27.337 43.588-14.011 28.779-20.469 55.416-6.6176 50.428 19.669-7.1495 54.278-42.901 83.779-73.719-1.9604-7.8417 2.9959-22.336 1.1882-28.95-42.559 46.326-84.06 67.064-51.012 8.654z"/>
			<path d="m723.95 419.49c-6.835-16.186-13.23-32.183-23.777-43.949-46.756 63.898-166.04 48.469-191.8 0.8993-15.813 7.4384-27.07 22.56-42.198 31.343 19.981 31.007 62.758 65.004 123.2 69 57.24 3.7105 101.11-25.617 134.58-57.294z"/>
			<path d="m739.71 29.039c-6.7632 0.724-17.709 2.038-29.668 3.8651-26.626 4.5515-134.64 41.392-183.62 62.29-11.359 6.9284-13.419 10.273-22.561 17.467 39.293-19.34 99.894-48.548 156.64-66.38 36.079-11.327 55.668-14.562 79.21-17.242z"/>
			<path d="m213.48 442.37c3.8488-4.4971 20.327-21.922 21.094-23.496 2.2952-4.8067-1.1564-12.711-1.3708-15.555-0.4487-6.1241-0.0542-10.741-0.4203-15.28-39.172 38.089-76.188 84.402-105.86 149.09 8.8795-5.3344 18.41-9.1307 28.527-11.868 13.204-27.084 36.965-58.27 58.032-82.889z"/>
			<path d="m313.32 714.98c18.097-6.775 32.521-19.185 46.487-32.684-52.613-42.576-9.0382-180.48 44.416-226.7-1.6433-15.896-11.771-23.436-13.569-37.868-38.966 37.482-94.221 103.62-104.58 181.61-6.7052 50.888 10.325 81.75 27.244 115.64z"/>
			<path d="m434.34 517.42c18.612 2.0873 36.473 5.2837 53.137 9.9487-6.7963-64.25-25.025-109.48-45.086-147.86-6.8049 4.9057-12.146 9.7988-20.439 16.399-3.8376 3.0465-18.637 11.805-20.348 16.652-0.5411 1.5979 7.0295 18.425 8.6602 22.788 9.185 24.551 22.313 54.981 24.076 82.077z"/>
			<path d="m143.64 685.13c5.8993 13.152 13.372 25.131 25.046 31.318 18.435-34.581 39.319-65.246 53.087-115.76 21.293-78.273 17.663-141.12 16.721-177.26-11.427 14.596-23.135 22.791-33.768 38.934 6.1454 44.826-16.42 176.19-61.086 222.77z"/>
			<path d="m531.38 1483.2c-2.8156-8.7234 0.2966-14.41-1.1158-23.544-16.737-12.941-37.748-29.94-56.791-50.834-7.4582-20.921-7.3883-39.73-5.9596-54.821-12.323-11.999-26.055-20.208-38.25-32.801-5.6698 21.173-6.6632 52.458 9.173 86.14 30.807 33.378 66.921 59.257 92.943 75.861z"/>
			<path d="m445.47 1501.5c3.4117 0.9174 36.226 20.497 38.436 20.747 1.2557 0.1268-7.9349-9.1887-9.342-11.383-7.1556-11.201-6.1388-21.777-2.5282-27.725-11.687-12.15-23.085-25.176-31.309-37.031 12.824 12.098 26.162 25.244 39.822 37.543 18.298 7.5265 45.071 19.342 69.65 31.956 4.6849 2.4069 21.228 12.261 22.904 12.322 3.0099 0.0787-6.667-18.212-3.3325-18.72-43.383-26.343-87.29-49.154-130.57-64.841-16.934 10.843-14.94 33.43 6.2673 57.132z"/>
			<path d="m352.94 1402.4c13.485 20.535 23.636 36.714 32.317 48.898 13.408 9.7697 25.222 16.242 38.903 25.497-9.9553-15.223-24.106-39.693-44.19-72.566-33.804-34.287-68.57-66.702-93.636-89.53 3.3737 12.042 2.1955 19.452 6.5894 30.862 16.772 15.936 38.026 35.517 60.016 56.839z"/>
			<path d="m248.84 1275.8c40.911 41.056 84.781 70.544 129.92 88.182 27.126-15.697 43.755-42.575 56.814-80.318-6.4036-1.2426-33.48-33.848-38.664-34.107-2.8931-0.1132-6.3463 16.5-8.2881 20.299-9.7445 18.965-23.818 34.71-34.123 44.066 7.7684 17.069 16.396 33.811 22.933 48.006-11.93-14.454-23.434-31.314-34.441-48.526-20.108-10.36-48.424-27.662-72.547-48.394-4.6508-4.0038-20.359-21.195-22.333-21.273-3.4832-0.0822 3.8764 31.222 0.7309 32.064z"/>
			<path d="m747.63 1617.4c8.9 1.6409 15.771 2.5304 22.349 3.3193-10.568-2.1805-23.881-7.3877-49.033-22.356-30.243-18.002-67.626-41.998-97.905-58.502 3.155 7.1215 0.335 10.606 5.8657 17.536 42.341 19.547 109.03 56.319 118.72 60.003z"/>
			<path d="m644.69 1580.5c-19.563-14.25-28.801-29.639-29.73-43.438-11.641-6.1432-23.419-11.992-35.388-18.417 0.9493 20.205 16.73 43.556 53.37 64.38 2.4981-1.2883 6.1801-2.188 11.748-2.5253z"/>
			<path d="m483.69 1512.4c1.1876 4.7699 6.7994 11.385 13.656 17.893 25.004 11.516 56.912 24.311 80.122 30.716 5.2032-5.1079 2.6537-15.556 2.2223-25.417-12.96-7.0455-25.934-14.098-38.537-19.584 3.381 9.113 1.7576 15.169-4.3051 18.335-15.782-4.3564-34.914-11.974-53.159-21.944z"/>
			<path d="m199.22 1124.4c3.9187 42.066 5.087 74.894 6.1253 102.69 11.027 11.623 22.351 22.102 33.979 33.036-0.4197-36.681-0.4519-81.281-7.4276-145.01-10.374 4.2675-20.993 7.7027-32.677 9.2834z"/>
			<path d="m580.47 1576.2c6.6011 1.1836 14.287 2.903 22.492 4.8452-54.819-22.489-101.11-46.728-144.8-69.96 5.2079 6.0305 10.176 11.391 16.736 17.041 32.098 15.96 66.487 32.321 105.57 48.074z"/>
			<path d="m430.93 1268c5.7531-10.581 12.823-20.545 19.217-31.597-33.652-29.382-64.817-63.841-90.019-107.4-17.832-2.3705-34.352-6.5374-50.065-11.686 31.314 65.413 74.551 112.15 120.87 150.68z"/>
			<path d="m708.63 1602.4c0.4513 0.0179 0.9032 0.0359 1.3557 0.0536-11.594-5.5593-22.149-11.454-31.901-16.159-27.177-2.2366-39.357 1.4204-34.992 6.88-30.468-7.8529-54.79-13.452-67.274-13.868 11.351 4.8497 28.275 11.092 48.93 17.216 0.2489 0.031 0.4988 0.0618 0.7499 0.0925 3.9412-1.246 31.073 4.84 64.308 11.987-13.609-5.1726-3.3041-8.8572 18.824-6.2027z"/>
			<path d="m780.69 1621.9c21.056 0.7201 32.845 0.1427 36.852-0.0288-2.6609 0.2001-10.286 1.0476-22.899 1.0177-8.4481-0.1167-17.064-0.5132-28.358-1.5715 5.0507 0.604 7.785 0.7208 1.483 0.2867 1.95 0.1235-7.7663-0.5045-18.303-1.4794 12.297 1.1388 21.318 1.5325 31.225 1.7753z"/>
			<path d="m716.24 1593.1c7.4666 4.8942 18.192 11.237 24.292 14.701 12.766 2.4144 43.411 12.175 52.594 14.338 4.2675 1.0032 3.6659 0.8229-0.312 0.6537-10.76-0.4587-54.954-3.871-95.976-17.42-3.8331 0.0876-3.0006 1.3828-2.7915 2.2815 56.877 15.995 98.811 15.961 117.38 15.032 10.626-0.5349 7.1819-1.4128 9.0295 0.3831-18.719 5.579-54.492-18.757-104.21-29.968z"/>
			<path d="m264.89 1391.6c10.094 9.4601 20.411 18.775 28.417 25.862-1.2901-2.8767 8.4255 2.35 9.3302 0.9744-9.3979-8.2395-18.409-16.412-27.069-24.494-6.6916-7.7198-13.51-15.915-20.442-24.625-5.0664-2.642-6.3682 1.0297-12.647-3.5605 6.3299 7.5336 14.425 16.974 22.411 25.844z"/>
			<path d="m609.94 1509.7c-4.0963-2.191-21.308-12.273-22.224-12.314-2.7731-0.0708-0.4391 8.6284-0.3735 10.601 0.131 4.2133-0.1689 6.6875 0.5673 10.129 39.669 22.589 77.163 39.085 112.39 47.794-8.8564-7.7893-17.657-16.787-26.181-26.985-16.504-4.4409-42.157-17.435-64.182-29.225z"/>
			<path d="m436.96 1498.9c-2.0329-2.7852-4.3764-5.4362-7.1122-9.4991-1.0688-1.5867-2.5116-6.6431-6.279-9.859-2.8096-2.391-18.966-11.448-24.096-14.813-26.072-17.113-56.814-41.454-77.608-60.261-6.7326-1.9974-13.197-3.9406-19.888-6.7924 2.4086-1.8514 6.3729-2.6796 10.445-3.626-12.952-18.515-27.291-45.261-32.309-65.851-0.9928-4.0963-0.2058-15.054-2.3332-18.417-2.8748-4.5178-15.111-13.029-18.096-15.622-7.6025-6.5991-12.045-11.004-17.676-15.874 2.7064 34.061 18.402 73.235 56.188 118.94 48.731 46.694 95.097 77.24 138.76 101.67z"/>
			<path d="m688.34 1414c-8.1949-9.3113-15.123-18.998-19.67-26.679-12.43 3.6963-36.221-1.3263-46.908 0.6509 6.0331 8.8914 12.248 17.322 18.599 25.331-0.9998 7.7552-1.4257 15.669-1.234 23.714 11.088 2.1365 30.147-1.7668 43.548 1.9246 0.3796-6.9255 2.1316-15.98 5.6655-24.942z"/>
			<path d="m372.09 1267.8c7.4173-8.5133 11.53-20.324 15.584-32.953-28.538-21.129-66.145-47.576-100.86-61.906-23.903 11.588-37.678 36.403-43.054 56.466 12.265 13.234 24.926 25.607 38.094 34.703 0.8371-15.768 11.112-27.97 26.619-34.125 22.204 7.8841 45.468 21.296 63.614 37.815z"/>
			<path d="m132.88 1049.7c5.6576 23.819 12.934 44.008 21.188 58.905 41.313 6.304 75.33-6.5233 105.65-29.278 44.791 26.339 98.741 39.402 164.77 36.516 3.5737-15.072 1.959-35.606-2.5993-59.996-1.582-0.0188-3.1616-0.0377-4.7386-0.0566-58.836 7.494-129.09-8.5032-171.24-43.979-28.481 32.244-73.76 48.327-110.63 37.983-0.8056-0.0314-1.6074-0.0627-2.4052-0.0942v1e-4z"/>
			<path d="m451.21 1287.2c-3.1871 4.5468-4.7368 8.7467-8.1975 15.036-1.3326 2.4352-9.2556 10.175-7.2639 14.73 1.4949 3.3705 19.726 15.385 24.769 19.737 25.267 21.837 51.877 49.58 69.348 68.884 11.584 1.8389 23.293 3.5498 34.666 6.111-9.1074 2.0154-19.289 3.1171-29.137 4.2969 2.6516 17.948 5.6132 40.992 5.8615 57.136 0.0427 3.094-2.8879 11.108-0.8447 13.487 2.7469 3.1754 15.645 8.9893 18.752 10.721 7.8848 4.3909 12.485 7.2246 18.414 10.305 1.1895-23.087 3.0488-51.659-4.1117-95.724-35.961-48.065-77.364-88.016-122.26-124.72z"/>
			<path d="m352.71 869.66c-33.015-25.576-77.939-40.582-122.64-45.81-40.785 4.7728-75.616 18.974-95.066 44.894 10.532 13.622 22.089 26.477 32.299 43.676 13.266-11.871 41.461-20.796 65.169-14.774 24.12-5.9938 58.75 4.021 78.631 15.967 10.9-17.505 26.262-30.44 41.604-43.954z"/>
			<path d="m287.01 1020.8c15.297 6.1306 30.084 13.623 48.566 15.532 1.8943-67.955 71.494-132.58 152.67-139.21 33.338-2.6985 57.551 2.195 72.464 21.463 40.294 52.271-30.914 104.36-64.37 115.81 5.3126 18.027 7.1586 44.827 7.9083 62.728 114.92-41.02 185.66-134.46 246.84-248.31-107.31-35.364-223.91-37.385-314.84-5.991-84.406 29.221-145.74 90.738-149.24 177.98z"/>
			<path d="m585.39 1311.4c13.952 6.6605 31.086 8.8862 50.496 8.2628-25.568-81.172-17.367-182.66 28.018-225.03 5.9565-5.5463 14.239-10.299 20.934-12.758 82.886-30.196 78.744 94.838 58.109 139.73 16.222 13.76 28.311 31.287 40.836 47.76 49.282-79.802 53.578-258.97 14.176-373.82-152.8 84.336-278.93 204.31-212.57 415.84z"/>
			<path d="m745.21 1511.5c5.2692-8.0793 10.251-16.961 11.79-29.451-24.413-15.422-48.493-32.682-83.144-36.094-53.614-5.2211-81.801 23.059-88.671 44.314 12.397 5.6497 23.738 15.102 35.906 19.748 4.9107-29.441 86.029-39.083 124.12 1.482z"/>
			<path d="m641.6 1176.6c-3.2474 18.094-7.675 34.611-5.9396 55.998 6.6338 2.6196 20.365 5.636 29.182 10.171 50.989 26.309 109.85 106.68 106.98 171.9 13.323 57.311-14.658 109.62-37.726 123.75-3.5943 2.191-10.252 3.5435-13.027 4.7614 6.1059 10.241 13.557 17.528 20.447 24.931 43.329-16.643 72.01-64.274 80.986-153.32-11.376-110.55-73.536-199.05-180.9-238.19z"/>
			<path d="m781.16 1549.5c15.508 19.235 26.872 56.232-1.187 49.178-2.5713-0.6499-6.1709-1.9116-9.2918-3.4067-27.293-13.097-67.681-54.088-83.225-103.47-14.517-0.8445-25.958 0.2267-32.432 4.4727 29.179 59.737 72.451 90.029 107.36 107.41 26.743 13.297 46.643 18.249 58.471 19.632 0.3625-3.3933 3.2732-13.083 2.5811-28.961-0.9709-22.049-8.1352-49.124-24.42-69.352-6.1188 8.9089-11.019 17.848-17.858 24.501z"/>
			<path d="m674.93 1606.3c-7.3668-1.4082-15.695-3.2045-20.618-3.9142 50.003 14.627 96.442 17.625 98.525 17.56 1.2147-0.0399-3.7825-0.2897-21.384-2.1877-48.322-5.2164-90.848-15.32-97.653-17.428-16.152-4.1339-39.562-11.236-55.024-16.688 23.391 11.704 107.86 34.071 213.41 37.414 28.67 1.1693 28.041 0.6648 8.1155 0.8293-22.223 0.1814-65.25 1.344-125.38-15.586z"/>
			<path d="m117.53 1199.5c-23.267-42.702-68.57-160.27-52.198-131.88 1.4495 2.5197 3.898 7.2651 6.4712 12.688 20.64 43.505 67.92 143.35 120.93 219.64 5.2803 1.7512 8.2506 0.4137 7.6421-5.4611-129.05-192.42-172.24-319.95-173.35-403.77 10.517 107.83 71.33 279.05 116.04 353.37-9.7425-15.27-19.164-31.772-25.533-44.583z"/>
			<path d="m378.28 1479.6c-8.8314-4.9473-14.137-7.0736-16.949-7.2666 75.032 55.257 168.6 96.689 205.35 108.99 4.8057 1.6077 8.8186 2.8657 10.801 3.4603 25.542 7.6555-92.375-35.178-133.49-56.97-13.678-7.5078-30.734-17.5-46.528-27.736 73.188 44.437 243.32 108.03 351.15 118.16-76.845-6.1536-189.89-6.5369-370.34-138.64z"/>
			<path d="m492.52 1551.6c-16.517-7.7167-31.329-15.271-51.046-26.372-3.1563-1.5494-7.395-3.5281-12.469-6.2463-29.196-15.65-112.18-70.399-172.97-131.39-61.37-61.804-112.22-140.59-119.25-164.66-1.1727-4.0375-0.3648-6.4088-0.5028-8.6852-11.438-20.608-20.443-36.841-29.3-54.591-1.0217 34.218 49.459 125.63 149.28 225.53 99.016 100.88 192.58 147.72 236.25 166.41z"/>
			<path d="m111.34 1087.3c-6.2046-17.326-14.027-43.327-17.008-60.663-14.449-11.332-45.483-63.634-41.394-112.46 1.5573-18.361 8.3618-22.575 19.614-19.884 34.94 8.4179 82.346 72.442 105.81 138.89 12.889-1.3295 21.849-8.3794 32.528-13.838-62.059-170-185.42-246.16-186.85-172.2 4.0631 108.67 39.474 203.38 87.294 240.14z"/>
			<path d="m421.82 933.39c-15.497 9.1381-30.716 18.233-41.024 32.161 66.358 46.366 69.855 180.45 39.602 226.92 10.892 16.268 26.471 24.425 38.232 39.154 17.692-33.257 37.628-87.399 32.828-154.75-4.5639-63.195-36.305-108.31-69.639-143.49z"/>
			<path d="m555.62 1238.3c-2.4344-20.47-3.2427-40.331-2.0606-59.032-54.674 18.057-88.481 51.234-107.36 90.696 6.1827 6.1113 11.758 10.473 19.704 17.642 3.6595 3.3068 15.705 17.176 19.684 17.308 1.3077 0.0171 10.141-14.793 12.729-18.102 14.659-18.767 35.457-40.994 57.307-48.513z"/>
			<path d="m131.17 962.3c-8.5146-13.672-17.978-22.785-26.872-32.093-10.462 32.908-14.501 77.21 4.7606 137.86 21.093 66.28 59.038 120.9 88.628 153.84-3.335-14.078 0.2843-21.382-2.839-37.054-42.265-45.208-90.035-181.55-63.678-222.55z"/>
			<path d="m725.51 1617.5c-6.46-0.7659-12.62-1.583-22.746-3.3405-44.196-7.0272-159.15-44.329-185.89-64.229-15.481-7.5266-26.114-11.821-40.784-19.614 20.696 16.496 62.362 40.351 121.67 59.46 54 17.382 96.056 23.878 127.75 27.723z"/>
			<path d="m736.22 1335.5c-7.2116-17.813-18.764-31.439-31.432-44.312-28.686 57.234-138.45 41.051-189.56-4.083-11.141 6.6729-12.728 20.798-21.655 28.461 40.642 30.328 104.11 67.552 160.65 63.348 37.714-2.8486 57.38-23.802 81.999-43.415z"/>
			<path d="m216.33 1274.9c3.7674 3.5085 20.045 19.021 20.708 19.089 2.0301 0.1317-2.6818-13.132-3.2476-16.238-1.2176-6.7412-1.34-10.793-2.3178-16.575-39.173-39.108-73.841-73.776-102.05-95.588 9.4974 18.465 19.85 37.936 31.21 57.859 12.212 8.8085 35.159 32.323 55.699 51.454z"/>
			<path d="m335.24 1457.4c17.434 13.408 31.344 23.052 44.658 31.776-54.394-37.243-15.668-22.017 36.238 8.2281-2.2928-3.8835-12.866-13.15-15.41-18.189-37.597-22.29-87.588-56.288-97.056-53.851-3.3834 0.911 13.899 18.143 31.57 32.036z"/>
			<path d="m448.2 1524.5c18.15 10.788 35.726 20.176 52.147 28.197-7.2768-5.879-27.695-20.7-49.171-43.099-6.6384-3.7581-11.797-6.5236-19.851-11.196-3.73-2.1658-18.27-11.49-19.765-11.677-0.4811-0.0447 7.9463 9.3645 9.7719 11.37 10.245 11.247 24.404 23.1 26.868 26.406z"/>
			<path d="m160.98 1268.5c7.113 12.164 15.519 25.07 28.288 42.083 17.42 21.318 38.357 43.006 48.606 47.608 19.919 8.8896 8.5394-25.716 3.9293-53.875-10.919-8.1962-22.904-22.566-33.017-30.09 11.059 42.83-4.4014 55.121-47.807-5.7265z"/>
	</g>
</svg>
